#!OML:ASF E:\Steps\Project 1\Capture day 1\Session 2\Subject.ASF
:FULLY-SPECIFIED
:DEGREES
254
root 10.0314 15.9866 18.2378 197.715 80.3289 173.622
lowerback -23.3852 -1.06841 -6.57819
upperback -2.63785 0.781889 -1.83254
thorax 10.1117 0.267699 1.99787
lowerneck 0.100422 0.0357419 -4.21177
upperneck 8.84727 -0.182896 6.69492
head 2.85928 0.0438006 2.9525
rclavicle 2.49475e-014 4.77083e-015
rhumerus -30.4004 -19.1655 -82.459
rradius 20.1682
rwrist 10.0216
rhand -15.1247 -56.5864
rfingers 7.12502
rthumb 11.0445 -86.2759
lclavicle 2.49475e-014 4.77083e-015
lhumerus -29.7126 -2.90833 86.9804
lradius 19.5001
lwrist -2.21657
lhand -29.189 -18.6909
lfingers 7.12502
lthumb -2.53423 11.2738
rfemur -34.4593 10.2106 18.0271
rtibia 32.0063
rfoot -28.8874 -11.7565
rtoes -35.1669
lfemur -37.1104 -18.4432 -10.0119
ltibia 34.0077
lfoot -16.9893 5.15694
ltoes -44.2369
255
root 10.0293 16.0007 18.2223 197.101 80.8546 173.046
lowerback -23.3476 -1.07254 -6.50988
upperback -2.64801 0.7467 -1.78686
thorax 10.0826 0.252544 1.99841
lowerneck 0.155177 0.019575 -4.26226
upperneck 8.81179 -0.208237 6.74635
head 2.8397 0.0294976 2.97799
rclavicle -7.55382e-015 3.97569e-015
rhumerus -30.5209 -19.9703 -81.8333
rradius 19.8895
rwrist 10.4177
rhand -15.117 -56.9403
rfingers 7.12502
rthumb 11.0519 -86.6293
lclavicle -7.55382e-015 3.97569e-015
lhumerus -29.372 -0.828097 86.3078
lradius 18.7616
lwrist -4.45948
lhand -29.3842 -18.7684
lfingers 7.12502
lthumb -2.7228 11.194
rfemur -34.2707 10.3897 17.8269
rtibia 31.5827
rfoot -28.7055 -11.6043
rtoes -35.7062
lfemur -36.782 -18.7732 -10.1524
ltibia 33.6925
lfoot -16.9869 5.8171
ltoes -43.2614
256
root 10.0299 16.014 18.2046 196.589 81.33 172.483
lowerback -23.483 -1.06258 -6.42532
upperback -2.64295 0.750399 -1.79351
thorax 10.1619 0.255181 1.94463
lowerneck 0.19738 -0.0218602 -4.16024
upperneck 8.79555 -0.267686 6.75803
head 2.82927 0.00294679 2.9608
rclavicle 1.20265e-014 -2.06736e-014
rhumerus -30.5807 -20.6032 -81.4964
rradius 19.5812
rwrist 10.3483
rhand -14.3312 -57.0529
rfingers 7.12502
rthumb 11.8098 -86.6999
lclavicle 1.20265e-014 -2.06736e-014
lhumerus -28.9737 0.855324 85.6605
lradius 17.9832
lwrist -6.43511
lhand -29.7273 -18.7479
lfingers 7.12502
lthumb -3.05407 11.2099
rfemur -34.1223 10.3999 17.6313
rtibia 31.0167
rfoot -28.2775 -11.0957
rtoes -35.3026
lfemur -36.2731 -17.65 -10.6854
ltibia 32.8573
lfoot -16.3663 5.75121
ltoes -45.3961
257
root 10.0317 16.0274 18.181 196.047 81.767 171.921
lowerback -23.6054 -1.0717 -6.25099
upperback -2.64298 0.70539 -1.80998
thorax 10.2333 0.239302 1.81326
lowerneck 0.209918 -0.0221454 -4.08312
upperneck 8.79631 -0.269653 6.74097
head 2.82635 0.00359021 2.94019
rclavicle 1.32192e-014 2.22639e-014
rhumerus -30.6079 -21.5251 -81.1009
rradius 19.1283
rwrist 10.5339
rhand -13.0934 -56.9711
rfingers 7.12502
rthumb 13.0032 -86.5458
lclavicle 1.32192e-014 2.22639e-014
lhumerus -28.803 1.57828 85.3807
lradius 17.5582
lwrist -7.15257
lhand -29.8508 -18.775
lfingers 7.12502
lthumb -3.17341 11.1812
rfemur -33.9093 10.4625 17.4087
rtibia 30.3854
rfoot -27.8315 -10.685
rtoes -34.6863
lfemur -35.9068 -17.4612 -10.9861
ltibia 32.3342
lfoot -16.1188 6.31885
ltoes -46.6312
258
root 10.0386 16.0405 18.1617 195.044 82.3691 171.06
lowerback -23.6046 -1.07601 -6.24111
upperback -2.62377 0.684305 -1.73475
thorax 10.2549 0.224784 1.8843
lowerneck 0.22185 0.00931259 -4.07749
upperneck 8.8026 -0.226962 6.70865
head 2.82314 0.023386 2.92879
rclavicle -9.44227e-015 -2.54444e-014
rhumerus -30.8527 -23.2023 -80.0359
rradius 18.6307
rwrist 12.5164
rhand -12.9265 -56.5661
rfingers 7.12502
rthumb 13.1641 -86.1305
lclavicle -9.44227e-015 -2.54444e-014
lhumerus -28.7956 2.27367 85.2778
lradius 17.295
lwrist -7.70241
lhand -29.6432 -18.7577
lfingers 7.12502
lthumb -2.97293 11.2014
rfemur -33.4812 10.8662 17.2093
rtibia 29.7461
rfoot -27.4647 -10.5311
rtoes -34.7919
lfemur -35.2301 -17.5519 -11.2898
ltibia 31.7761
lfoot -16.1966 6.84914
ltoes -46.0588
259
root 10.0366 16.0512 18.146 194.735 82.6432 170.618
lowerback -23.7542 -1.15203 -6.14154
upperback -2.68263 0.561701 -1.65194
thorax 10.2776 0.170969 1.88173
lowerneck 0.228774 0.00586048 -4.11441
upperneck 8.80146 -0.233 6.72287
head 2.82235 0.0190108 2.94042
rclavicle 2.15681e-014 -1.35174e-014
rhumerus -31.2098 -24.9565 -78.8272
rradius 18.157
rwrist 14.8565
rhand -14.0618 -55.6677
rfingers 7.12502
rthumb 12.0695 -85.2997
lclavicle 2.15681e-014 -1.35174e-014
lhumerus -28.773 2.64969 85.2872
lradius 17.0923
lwrist -7.91693
lhand -29.7387 -18.0794
lfingers 7.12502
lthumb -3.06513 11.8783
rfemur -33.358 11.0413 16.9731
rtibia 29.0576
rfoot -27.0671 -10.4415
rtoes -34.9672
lfemur -35.0013 -17.4646 -11.3445
ltibia 31.1559
lfoot -16.3326 6.36875
ltoes -42.3312
260
root 10.0375 16.0739 18.1316 194.257 82.8797 170.301
lowerback -23.6217 -1.23302 -6.07145
upperback -2.68603 0.408812 -1.54185
thorax 10.2132 0.099115 1.91511
lowerneck 0.279976 0.00838135 -4.16906
upperneck 8.79272 -0.231266 6.74024
head 2.81048 0.017417 2.95602
rclavicle -5.76476e-015 1.98785e-014
rhumerus -31.4292 -25.6448 -78.1414
rradius 17.7951
rwrist 15.5264
rhand -14.6511 -55.2626
rfingers 7.12502
rthumb 11.5013 -84.927
lclavicle -5.76476e-015 1.98785e-014
lhumerus -28.7599 3.2494 85.197
lradius 16.8468
lwrist -8.00935
lhand -29.8406 -17.5964
lfingers 7.12502
lthumb -3.16349 12.3599
rfemur -32.8188 11.1224 16.8565
rtibia 28.1957
rfoot -26.6208 -10.2697
rtoes -35.093
lfemur -34.3597 -16.869 -11.7264
ltibia 30.2961
lfoot -15.7174 6.55026
ltoes -44.4495
261
root 10.0453 16.0997 18.1192 193.44 83.3018 169.751
lowerback -23.4812 -1.25275 -6.09051
upperback -2.6617 0.359036 -1.43991
thorax 10.1677 0.0703036 2.02291
lowerneck 0.339325 0.0136853 -4.15481
upperneck 8.78032 -0.225409 6.73371
head 2.79466 0.0194457 2.95032
rclavicle -9.24349e-015 7.15625e-015
rhumerus -31.6361 -25.9909 -77.7016
rradius 17.5938
rwrist 15.6006
rhand -14.8355 -56.2204
rfingers 7.12502
rthumb 11.3234 -85.8948
lclavicle -9.24349e-015 7.15625e-015
lhumerus -28.7549 4.24099 84.9133
lradius 16.5689
lwrist -8.61917
lhand -29.52 -17.6273
lfingers 7.12502
lthumb -2.8539 12.3334
rfemur -32.1247 11.4248 16.7928
rtibia 27.3292
rfoot -26.1823 -10.0784
rtoes -35.3894
lfemur -33.49 -16.4189 -12.0316
ltibia 29.5339
lfoot -15.7214 6.02911
ltoes -40.9008
262
root 10.053 16.1221 18.1061 193.904 83.6955 170.305
lowerback -23.5643 -1.14223 -5.8621
upperback -2.65933 0.455307 -1.48153
thorax 10.2094 0.124238 1.8769
lowerneck 0.338651 -0.0364084 -3.98269
upperneck 8.76188 -0.295594 6.73223
head 2.79127 -0.009842 2.91568
rclavicle -5.76476e-015 3.73715e-014
rhumerus -32.0453 -27.2314 -77.0739
rradius 17.4677
rwrist 16.6577
rhand -15.4478 -57.2306
rfingers 7.12502
rthumb 10.7328 -86.9364
lclavicle -5.76476e-015 3.73715e-014
lhumerus -28.7126 4.3894 84.7027
lradius 16.3629
lwrist -8.91445
lhand -29.2888 -17.3611
lfingers 7.12502
lthumb -2.63059 12.6024
rfemur -31.5827 11.8308 16.836
rtibia 26.458
rfoot -25.7729 -9.94736
rtoes -35.8069
lfemur -32.8239 -15.9809 -12.0972
ltibia 28.7691
lfoot -15.7307 5.61248
ltoes -38.0198
263
root 10.0585 16.146 18.0921 194.747 83.9367 171.159
lowerback -23.7107 -1.06921 -5.6303
upperback -2.65289 0.50269 -1.48783
thorax 10.2935 0.153653 1.75303
lowerneck 0.307268 -0.0880744 -3.84419
upperneck 8.74534 -0.367588 6.7394
head 2.79466 -0.0405978 2.89068
rclavicle 2.98177e-016 -1.51076e-014
rhumerus -32.423 -28.6952 -76.2678
rradius 17.2607
rwrist 17.7508
rhand -15.8435 -57.2697
rfingers 7.12502
rthumb 10.3512 -86.995
lclavicle 2.98177e-016 -1.51076e-014
lhumerus -28.638 4.16113 84.6913
lradius 16.1844
lwrist -8.78249
lhand -29.2106 -17.1795
lfingers 7.12502
lthumb -2.55511 12.7849
rfemur -31.1001 11.9923 16.8892
rtibia 25.5259
rfoot -25.3719 -9.73106
rtoes -35.4673
lfemur -32.3169 -15.5968 -12.1667
ltibia 27.911
lfoot -15.2041 6.00475
ltoes -40.8754
